Coordinates
version=1
nRows=17
nColumns=24
inDegrees=yes

Units are S.I. units (second, meters, Newtons, ...)
Angles are in degrees.

endheader
time	pelvis_tilt	pelvis_list	pelvis_rotation	pelvis_tx	pelvis_ty	pelvis_tz	hip_flexion_r	hip_adduction_r	hip_rotation_r	knee_angle_r	ankle_angle_r	subtalar_angle_r	mtp_angle_r	hip_flexion_l	hip_adduction_l	hip_rotation_l	knee_angle_l	ankle_angle_l	subtalar_angle_l	mtp_angle_l	lumbar_extension	lumbar_bending	lumbar_rotation
      3.06000000	    -10.88281739	     -1.79080619	      9.17847922	     -1.84197105	     -0.03995441	     -0.30495567	     36.57010759	     -4.66588467	    -15.04274033	    -12.71858709	     -2.29526303	     -3.41953742	     12.31355882	     -5.08486772	     -1.87803568	     -3.32889846	    -17.47289373	      7.14677218	     -0.13234634	     -2.24666373	      4.61152637	      1.69005541	    -11.04561687
      3.06500000	    -10.83951479	     -2.00332029	      9.17150478	     -1.83336536	     -0.04056567	     -0.30416118	     36.44456384	     -4.37398971	    -14.95222888	    -13.19338232	     -3.23621473	     -4.07887293	     14.58533142	     -5.29759331	     -2.35667933	     -3.69327800	    -17.91192408	      5.98656991	      0.14167830	      0.44977250	      4.74556600	      1.91666979	    -11.03227169
      3.07000000	    -10.93965625	     -2.27888625	      9.15302301	     -1.82471094	     -0.04123780	     -0.30340208	     36.50801696	     -4.05209519	    -14.89430276	    -13.80535088	     -3.89698914	     -4.43448738	     14.59978431	     -5.28287265	     -2.86857663	     -3.95641192	    -18.55859965	      5.42794527	      0.66969152	      0.45281938	      5.05705900	      2.19290324	    -11.01215789
      3.07500000	    -10.99812558	     -2.57113055	      9.08903756	     -1.81608780	     -0.04178841	     -0.30245808	     36.52475198	     -3.65157922	    -14.69265354	    -14.37416760	     -4.77704173	     -5.08382260	     14.64596227	     -5.26624609	     -3.42553677	     -4.34108221	    -19.26756198	      4.75942177	      1.22368695	      0.59743146	      5.31501660	      2.48176946	    -10.91951437
      3.08000000	    -11.06046360	     -2.89459920	      8.92192788	     -1.80737656	     -0.04225215	     -0.30142027	     36.56669437	     -3.16369200	    -14.44420057	    -14.94895249	     -5.77446405	     -5.77417915	     14.81421285	     -5.25666848	     -4.01023376	     -4.78339068	    -19.95321221	      3.91537933	      1.72365339	      1.05268753	      5.59227932	      2.82066499	    -10.70960316
      3.08500000	    -11.16478053	     -3.27189718	      8.84482357	     -1.79879492	     -0.04263630	     -0.30048420	     36.65416356	     -2.68690288	    -14.20444629	    -15.53626313	     -6.77552852	     -6.50944238	     14.80254626	     -5.08367125	     -4.65127483	     -5.10255252	    -20.78495336	      3.00207218	      2.11859092	      1.41451107	      5.91000743	      3.20000989	    -10.66225498
      3.09000000	    -11.22547143	     -3.65194349	      8.55830546	     -1.79013396	     -0.04295392	     -0.29931390	     36.73995344	     -2.07162164	    -13.75997395	    -16.17931967	     -7.74229509	     -7.20447712	     14.85403031	     -4.99908581	     -5.30210138	     -5.66906753	    -21.56518517	      1.81160739	      2.46722704	      2.62055043	      6.17487082	      3.62478801	    -10.34391358
      3.09500000	    -11.36718604	     -4.04933144	      8.38774485	     -1.78146834	     -0.04318737	     -0.29822661	     36.89575354	     -1.51294711	    -13.39799652	    -16.83854609	     -8.61948310	     -7.96569259	     14.60113080	     -4.73322294	     -5.96517180	     -6.01126578	    -22.45803070	      0.54932106	      2.76936410	      3.32810842	      6.54334254	      4.02535370	    -10.20263372
      3.10000000	    -11.47427169	     -4.44116985	      8.16141996	     -1.77282287	     -0.04335016	     -0.29706210	     37.02494125	     -0.91372844	    -12.93047387	    -17.54315270	     -9.32506588	     -8.62796254	     14.16642518	     -4.46516623	     -6.63360260	     -6.42652063	    -23.40998213	     -0.86736637	      3.01207806	      4.18919097	      6.86280385	      4.43837306	    -10.00501492
      3.10500000	    -11.57081366	     -4.78897941	      8.03345895	     -1.76427113	     -0.04338192	     -0.29601379	     37.11948464	     -0.40564087	    -12.49012283	    -18.24539290	     -9.94918049	     -9.33908202	     13.80548914	     -4.12414848	     -7.23827902	     -6.59116555	    -24.45752540	     -2.37012117	      3.10057824	      4.41611769	      7.15873178	      4.79252847	     -9.94637888
      3.11000000	    -11.62349452	     -5.16516269	      7.75966292	     -1.75558632	     -0.04339698	     -0.29470750	     37.17955471	      0.23169150	    -12.04105063	    -19.01244168	    -10.15830788	     -9.74673567	     12.31971732	     -3.84429531	     -7.91941522	     -7.06190004	    -25.43256867	     -4.51343897	      3.05662473	      7.03671055	      7.41078686	      5.19405871	     -9.69539888
      3.11500000	    -11.72480204	     -5.44278853	      7.52972056	     -1.74699515	     -0.04340327	     -0.29349924	     37.24556296	      0.74995521	    -11.50088585	    -19.69907765	    -10.48130491	    -10.33514318	     12.09637865	     -3.42338887	     -8.44964519	     -7.27572944	    -26.61692150	     -6.22482212	      3.06446760	      6.85197887	      7.69183585	      5.49133974	     -9.53253928
      3.12000000	    -11.80396684	     -5.69918206	      7.28095756	     -1.73841297	     -0.04337700	     -0.29222083	     37.26212571	      1.26825428	    -11.02347992	    -20.35494086	    -10.65774638	    -10.89150322	     11.85967210	     -2.97521316	     -8.97028932	     -7.52272109	    -27.86315556	     -8.08374065	      3.00834801	      6.74845142	      7.93917767	      5.76360976	     -9.33262913
      3.12500000	    -11.92519180	     -5.95632774	      6.98072107	     -1.72980325	     -0.04340330	     -0.29083276	     37.29046084	      1.81950899	    -10.54613582	    -20.96927199	    -10.64398679	    -11.34887697	     11.43243444	     -2.44195304	     -9.49654140	     -7.79056938	    -29.15931896	    -10.11507927	      2.89101919	      7.05709324	      8.22883812	      6.04100632	     -9.09825550
      3.13000000	    -11.87303830	     -6.19186873	      6.80191332	     -1.72136321	     -0.04318161	     -0.28971343	     37.07534616	      2.28060786	    -10.31079106	    -21.49512546	    -10.48097584	    -11.70084356	     11.40454260	     -2.00002198	     -9.98641800	     -7.86665935	    -30.53804109	    -12.13906018	      2.55796513	      6.68981966	      8.31065149	      6.31727714	     -8.98541573
      3.13500000	    -11.92286953	     -6.33179086	      6.51997165	     -1.71304023	     -0.04301911	     -0.28831951	     36.95276247	      2.72671279	     -9.94102487	    -21.98211991	    -10.36347636	    -12.21167079	     11.32231385	     -1.42892984	    -10.34829099	     -7.92511615	    -31.95069378	    -14.24736574	      2.15341174	      6.32521927	      8.45761175	      6.47714577	     -8.75767805
      3.14000000	    -11.92292965	     -6.55586010	      6.26670515	     -1.70473030	     -0.04286844	     -0.28702574	     36.72020400	      3.23475314	     -9.66474305	    -22.38565637	    -10.00481010	    -12.54216058	     11.35995252	     -0.82985833	    -10.80488660	     -7.96191765	    -33.47056065	    -16.19859992	      1.66971915	      5.89092126	      8.56271887	      6.73897003	     -8.58506955
